# xmcd
#
# Track frame offsets: 
#        150
#        15495
#        34290
#        47935
#        63604
#        79040
#        95549
#        108138
#        125280
#        139142
#
# Disc length: 2081 seconds
#
# Revision: 0
# Processed by: cddbd v1.5.2PL0 Copyright (c) Steve Scherf et al.
# Submitted via: ExactAudioCopy v0.95b4
#
DISCID=81081f0a
DTITLE=New Ruins - We Make Our Own Bad Luck
DYEAR=2009
DGENRE=
TTITLE0=Angry Ghost
TTITLE1=Lake
TTITLE2=Symptoms
TTITLE3=As Far As We Know
TTITLE4=Other Ones
TTITLE5=And All The Night
TTITLE6=Held Up By Sand
TTITLE7=A Curse
TTITLE8=Years
TTITLE9=Arrows
EXTD=
EXTT0=
EXTT1=
EXTT2=
EXTT3=
EXTT4=
EXTT5=
EXTT6=
EXTT7=
EXTT8=
EXTT9=
PLAYORDER=
